HIERARCHY
ROOT Character1_Hips
{
  OFFSET 8.8877 99.7705 -228.878
  CHANNELS 6 Xposition Yposition Zposition Zrotation Xrotation Yrotation
  JOINT Character1_Spine
  {
    OFFSET 0 8.754 -1.339
    CHANNELS 3 Zrotation Xrotation Yrotation
    JOINT Character1_Spine1
    {
      OFFSET 0 10.855 -0.645
      CHANNELS 3 Zrotation Xrotation Yrotation
      JOINT Character1_LeftShoulder
      {
        OFFSET 1.467 27.745 1.178
        CHANNELS 3 Zrotation Xrotation Yrotation
        JOINT Character1_LeftArm
        {
          OFFSET 18.486 -1.858 0.275
          CHANNELS 3 Zrotation Xrotation Yrotation
          JOINT Character1_LeftForeArm
          {
            OFFSET 31.798 2.36 2.921
            CHANNELS 3 Zrotation Xrotation Yrotation
            JOINT Character1_LeftHand
            {
              OFFSET 29.001 1.642 2.112
              CHANNELS 3 Zrotation Xrotation Yrotation
              End Site
              {
                OFFSET 0.269758 0.141128 0.89614
              }
            }
            JOINT L_Radius_RIGMESH
            {
              OFFSET 0.592911 0.209926 -0.435177
              CHANNELS 3 Zrotation Xrotation Yrotation
              End Site
              {
                OFFSET 0 0 0
              }
            }
          }
          JOINT L_Humerus_RIGMESH
          {
            OFFSET 0.000383861 -0.000257932 -6.47351e-005
            CHANNELS 3 Zrotation Xrotation Yrotation
            End Site
            {
              OFFSET 0 0 0
            }
          }
        }
        JOINT L_Shoulder_RIGMESH
        {
          OFFSET 3.24498e-005 -0.000608592 -0.000527677
          CHANNELS 3 Zrotation Xrotation Yrotation
          End Site
          {
            OFFSET 0 0 0
          }
        }
      }
      JOINT Character1_RightShoulder
      {
        OFFSET -1.467 27.745 1.178
        CHANNELS 3 Zrotation Xrotation Yrotation
        JOINT Character1_RightArm
        {
          OFFSET -18.486 -1.858 0.275
          CHANNELS 3 Zrotation Xrotation Yrotation
          JOINT Character1_RightForeArm
          {
            OFFSET -31.798 2.35964 2.92082
            CHANNELS 3 Zrotation Xrotation Yrotation
            JOINT Character1_RightHand
            {
              OFFSET -29.0007 1.64167 2.112
              CHANNELS 3 Zrotation Xrotation Yrotation
              End Site
              {
                OFFSET 161.773 0.141827 0.896322
              }
            }
            JOINT R_Radius_RIGMESH
            {
              OFFSET 104.095 0.21029 -0.434995
              CHANNELS 3 Zrotation Xrotation Yrotation
              End Site
              {
                OFFSET 0 0 0
              }
            }
          }
          JOINT R_Humerus_RIGMESH
          {
            OFFSET 39.9064 -0.000257932 -6.47351e-005
            CHANNELS 3 Zrotation Xrotation Yrotation
            End Site
            {
              OFFSET 0 0 0
            }
          }
        }
        JOINT R_Shoulder_RIGMESH
        {
          OFFSET -3.24498e-005 -0.000608592 -0.000527677
          CHANNELS 3 Zrotation Xrotation Yrotation
          End Site
          {
            OFFSET 0 0 0
          }
        }
      }
      JOINT Character1_Neck
      {
        OFFSET 0 30.836 0.626
        CHANNELS 3 Zrotation Xrotation Yrotation
        JOINT Character1_Head
        {
          OFFSET 0 8.074 3.498
          CHANNELS 3 Zrotation Xrotation Yrotation
          End Site
          {
            OFFSET 0 -0.00153379 1.54668e-005
          }
        }
        JOINT Neck_RIGMESH
        {
          OFFSET 0.510865 0.0542061 1.47629
          CHANNELS 3 Zrotation Xrotation Yrotation
          End Site
          {
            OFFSET 0 0 0
          }
        }
      }
      JOINT Torso_RIGMESH
      {
        OFFSET 0 -0.000828813 -0.000380861
        CHANNELS 3 Zrotation Xrotation Yrotation
        End Site
        {
          OFFSET 0 0 0
        }
      }
    }
    JOINT Spine_RIGMESH
    {
      OFFSET -0.141554 -0.0672963 -0.342265
      CHANNELS 3 Zrotation Xrotation Yrotation
      End Site
      {
        OFFSET 0 0 0
      }
    }
  }
  JOINT Character1_RightUpLeg
  {
    OFFSET -9.035 -4.63425 1.845
    CHANNELS 3 Zrotation Xrotation Yrotation
    JOINT Character1_RightLeg
    {
      OFFSET -0.919521 -40.345 1.155
      CHANNELS 3 Zrotation Xrotation Yrotation
      JOINT Character1_RightFoot
      {
        OFFSET 1.95452 -45.2655 -4.18888
        CHANNELS 3 Zrotation Xrotation Yrotation
        JOINT Character1_RightToeBase
        {
          OFFSET 1.87056 -6.69517 14.7145
          CHANNELS 3 Zrotation Xrotation Yrotation
          End Site
          {
            OFFSET 0 0 0
          }
        }
        JOINT R_Talus_RIGMESH
        {
          OFFSET 8 -7.75529 4.18888
          CHANNELS 3 Zrotation Xrotation Yrotation
          End Site
          {
            OFFSET 0 0 0
          }
        }
      }
      JOINT R_Tibia_RIGMESH
      {
        OFFSET 0 0 0
        CHANNELS 3 Zrotation Xrotation Yrotation
        End Site
        {
          OFFSET 0 0 0
        }
      }
    }
    JOINT R_Femur_RIGMESH
    {
      OFFSET 0 0 0
      CHANNELS 3 Zrotation Xrotation Yrotation
      End Site
      {
        OFFSET 0 0 0
      }
    }
  }
  JOINT Character1_LeftUpLeg
  {
    OFFSET 9.035 -4.63425 1.845
    CHANNELS 3 Zrotation Xrotation Yrotation
    JOINT Character1_LeftLeg
    {
      OFFSET 0.919521 -40.345 1.155
      CHANNELS 3 Zrotation Xrotation Yrotation
      JOINT Character1_LeftFoot
      {
        OFFSET -1.95452 -45.2655 -4.18888
        CHANNELS 3 Zrotation Xrotation Yrotation
        JOINT Character1_LeftToeBase
        {
          OFFSET -1.87056 -6.69517 14.7145
          CHANNELS 3 Zrotation Xrotation Yrotation
          End Site
          {
            OFFSET 0 0 0
          }
        }
        JOINT L_Talus_RIGMESH
        {
          OFFSET -8 -7.75529 4.18888
          CHANNELS 3 Zrotation Xrotation Yrotation
          End Site
          {
            OFFSET 0 0 0
          }
        }
      }
      JOINT L_Tibia_RIGMESH
      {
        OFFSET 0 0 0
        CHANNELS 3 Zrotation Xrotation Yrotation
        End Site
        {
          OFFSET 0 0 0
        }
      }
    }
    JOINT L_Femur_RIGMESH
    {
      OFFSET 0 0 0
      CHANNELS 3 Zrotation Xrotation Yrotation
      End Site
      {
        OFFSET 0 0 0
      }
    }
  }
  JOINT Pelvis_RIGMESH
  {
    OFFSET 0 0 0
    CHANNELS 3 Zrotation Xrotation Yrotation
    End Site
    {
      OFFSET 0 0 0
    }
  }
}
MOTION
Frames:	4
Frame Time:	0.00833333
8.8877 99.7705 -228.878 0.825731 6.80368 8.96203 -7.95139e-016 0 4.77083e-015 -6.47779 13.2929 3.29956 -5.81917 7.04227 -3.46682 -64.8339 22.9713 5.11596 0.000122033 -7.82011e-006 -90.554 10.3979 -1.25299 0.373441 -6.36111e-015 4.77083e-015 -3.18055e-015 -3.18055e-015 -3.18055e-015 -3.18055e-015 -3.97569e-015 0 -0 2.12833 4.48468 3.25458 58.0565 23.7741 -3.72108 -9.48331e-005 -2.37423e-005 100.522 -1.03416 0.762775 -1.4807 8.82781e-032 -3.18055e-015 1.59028e-015 -3.18055e-015 0 6.36111e-015 2.38542e-015 0 1.59028e-015 -7.95139e-016 0 -3.18055e-015 8.06268 -11.6774 -6.79859 4.79117 -14.2848 -1.93588 -7.95139e-016 0 -3.18055e-015 -2.05853 4.47058 0.924162 -9.35154 -29.9193 -12.8214 178.865 72.9724 -178.545 1.48281 31.4904 -11.5904 0.116165 -4.176 8.27727e-005 1.98785e-016 -6.36111e-015 -2.5842e-015 3.97569e-016 1.59028e-015 -2.48481e-016 9.93923e-017 3.18055e-015 7.95139e-016 -5.48608 -34.1616 9.26927 -0.368082 34.4192 0.141414 8.3923 -2.98526 -2.48868 0.0040507 -4.71559 0.00135421 2.20695e-032 -7.95139e-016 1.59028e-015 9.93923e-016 -7.95139e-016 -3.18055e-015 -3.18055e-015 0 6.36111e-015 -7.95139e-016 0 4.77083e-015 
8.96745 99.2841 -224.584 1.55705 6.56633 10.338 7.95139e-016 -1.59028e-015 -0 -7.10065 14.0393 0.792796 -6.05524 6.38616 -3.99254 -62.41 22.6807 1.06888 0.000121676 -2.52439e-005 -91.7888 11.3806 -0.835129 0.420883 3.18055e-015 -1.59028e-015 -3.18055e-015 3.18055e-015 -6.36111e-015 -3.18055e-015 -8.82781e-032 3.18055e-015 1.59028e-015 2.34459 4.83823 3.13518 59.2644 23.3736 -4.8905 -9.62076e-005 -1.45062e-005 96.4062 -2.98971 2.7762 -2.12732 3.18055e-015 4.77083e-015 -1.59028e-015 4.77083e-015 0 6.36111e-015 -7.95139e-016 -6.36111e-015 1.59028e-015 1.59028e-015 0 4.77083e-015 8.77654 -12.0519 -5.92738 5.39237 -14.9098 -1.86122 1.59028e-015 0 4.77083e-015 -2.40871 4.70651 0.0236127 -12.2793 -33.5063 -14.7958 178.943 70.7891 -178.574 0.935332 30.9752 -10.2106 0.122811 -4.41571 8.27988e-005 -1.19271e-015 -3.18055e-015 -3.67752e-015 -1.98785e-016 -1.59028e-015 3.47873e-016 -2.98177e-016 -3.18055e-015 3.97569e-016 -6.78941 -31.8918 6.79818 -0.367764 36.4536 0.145033 8.02632 -6.54524 -1.09539 -0.212766 -4.70878 -0.0139834 -3.97569e-016 7.95139e-016 -1.59028e-015 3.97569e-016 0 -0 1.59028e-015 0 -1.59028e-015 7.95139e-016 -1.59028e-015 -0 
9.05058 98.8065 -220.272 2.30013 6.36818 11.7095 -1.98785e-016 1.59028e-015 3.18055e-015 -7.72063 14.7778 -1.71724 -6.30352 5.73021 -4.51735 -60.0434 22.2831 -2.95797 0.000120944 -4.26575e-005 -93.0236 12.3639 -0.416875 0.470432 8.82781e-032 1.59028e-015 -3.18055e-015 -1.59028e-015 3.18055e-015 6.36111e-015 -0 -6.36111e-015 -0 2.56248 5.19186 3.01576 60.4548 22.9656 -6.05232 -9.69156e-005 -5.19446e-006 92.2898 -4.91695 4.79459 -2.77266 6.36111e-015 -1.59028e-015 4.77083e-015 -3.18055e-015 3.18055e-015 1.59028e-015 -7.95139e-016 0 -0 1.98785e-015 0 -3.18055e-015 9.48682 -12.4287 -5.05193 6.04399 -15.5756 -1.78738 1.98785e-015 0 -3.18055e-015 -2.79346 4.9606 -0.906432 -15.2974 -37.0931 -16.8469 179.007 68.5711 -178.577 0.404798 30.4194 -8.83913 0.129461 -4.65548 8.28262e-005 1.98785e-016 6.36111e-015 -2.43511e-015 -4.13804e-033 1.59028e-015 1.49089e-016 3.97569e-016 3.18055e-015 -0 -8.09974 -29.5285 4.33448 -0.360703 38.3827 0.145691 7.66837 -10.1044 0.25819 -0.429573 -4.70171 -0.0292857 3.97569e-016 -7.95139e-016 1.59028e-015 3.18055e-015 3.18055e-015 3.18055e-015 0 0 -4.77083e-015 -1.98785e-016 1.59028e-015 3.18055e-015 
9.13786 98.34 -215.942 3.05354 6.20954 13.0761 -5.96354e-016 -7.95139e-016 -3.18055e-015 -8.33877 15.5085 -4.23022 -6.56397 5.07458 -5.04148 -57.7422 21.7844 -6.95958 0.000119838 -6.00494e-005 -94.2583 13.3477 0.00184596 0.522127 3.18055e-015 -2.38542e-015 -0 3.18055e-015 0 3.18055e-015 7.95139e-016 -3.18055e-015 -2.38542e-015 2.78203 5.54554 2.8963 61.6289 22.5506 -7.20781 -9.69534e-005 4.14341e-006 88.1737 -6.81554 6.81804 -3.4185 9.54166e-015 -3.18055e-015 6.36111e-015 3.18055e-015 3.18055e-015 -0 -8.82781e-032 -3.18055e-015 -1.59028e-015 -7.95139e-016 -3.18055e-015 1.59028e-015 10.1937 -12.8053 -4.17242 6.59985 -16.1597 -1.71126 -7.95139e-016 -3.18055e-015 1.59028e-015 -3.08679 5.17472 -1.77935 -18.4262 -40.6789 -18.9968 179.063 66.3203 -178.557 -0.110427 29.8265 -7.47646 0.136102 -4.89521 8.28552e-005 5.96354e-016 -3.18055e-015 -2.98177e-016 9.93923e-017 -1.59028e-015 5.2181e-016 2.98177e-016 -6.36111e-015 2.98177e-016 -9.40691 -27.0641 1.88466 -0.343859 40.1924 0.137153 7.31834 -13.6554 1.5728 -0.646367 -4.69438 -0.044548 -5.96354e-016 -7.95139e-016 1.59028e-015 -3.97569e-015 0 1.59028e-015 1.59028e-015 6.36111e-015 -0 -5.96354e-016 -7.95139e-016 -3.18055e-015 
